Ostrich_Walking_Kinematics
version=1
nRows=14
nColumns=28
inDegrees=no
endheader
time	/jointset/pelvis/pelvis_tilt/value	/jointset/pelvis/pelvis_list/value	/jointset/pelvis/pelvis_rotation/value	/jointset/pelvis/pelvis_tx/value	/jointset/pelvis/pelvis_ty/value	/jointset/pelvis/pelvis_tz/value	/jointset/R_hip/R_hip_extension/value	/jointset/R_hip/R_hip_abduction/value	/jointset/R_hip/R_hip_rotation/value	/jointset/knee/R_knee_angle/value	/jointset/knee/R_knee_varus/value	/jointset/knee/R_knee_rotation/value	/jointset/R_ankle/R_ankle_angle/value	/jointset/R_ankle/R_ankle_abduction/value	/jointset/R_ankle/R_ankle_rotation/value	/jointset/R_mtp/R_mtp_angle/value	/jointset/R_mtp/R_mtp_abduction/value	/jointset/R_mtp/R_mtp_rotation/value	/jointset/L_hip/L_hip_extension/value	/jointset/L_hip/L_hip_abduction/value	/jointset/L_hip/L_hip_rotation/value	/jointset/knee_0/L_knee_angle/value	/jointset/knee_0/L_knee_varus/value	/jointset/knee_0/L_knee_rotation/value	/jointset/L_ankle/L_ankle_angle/value	/jointset/L_ankle/L_ankle_abduction/value	/jointset/L_mtp/L_mtp_angle/value
      0.98100000	      0.20309698	     -0.01667837	     -0.05017891	      1.91310000	      1.09940500	     -0.87679000	      0.64613136	     -0.27303931	     -0.60672183	     -1.28839158	     -0.28831443	     -0.12191020	      0.27886173	      0.15527741	      0.10452917	     -0.56893545	      0.49448319	      0.13621457	      0.73044822	     -0.28417102	     -0.53233938	     -1.29500638	     -0.29799403	     -0.19808789	      1.21660270	      0.38224107	     -1.89109915
      0.98500000	      0.20635028	      0.00743510	     -0.05130570	      1.91710000	      1.09830782	     -0.87599000	      0.65182812	     -0.29782298	     -0.59175388	     -1.30056700	     -0.29070204	     -0.12161978	      0.28197539	      0.15486132	      0.09672266	     -0.56925659	      0.50459214	      0.13555274	      0.72064645	     -0.27640779	     -0.53784066	     -1.27576587	     -0.28345892	     -0.19456931	      1.20321253	      0.38173841	     -1.88076680
      0.98900000	      0.20379512	      0.01991770	     -0.05703177	      1.92206000	      1.09621876	     -0.87475800	      0.66636322	     -0.30282161	     -0.57982979	     -1.31482285	     -0.29595199	     -0.12376584	      0.28609437	      0.15124081	      0.09120043	     -0.56213565	      0.50492724	      0.13716682	      0.71210132	     -0.26050435	     -0.56058579	     -1.25885712	     -0.28162982	     -0.19873017	      1.18601057	      0.38992052	     -1.86889856
      0.99300000	      0.20296783	     -0.00253422	     -0.05086902	      1.92612000	      1.09516870	     -0.87533200	      0.65953549	     -0.28636315	     -0.59879803	     -1.31410377	     -0.29629058	     -0.12708266	      0.28029639	      0.14755328	      0.09441498	     -0.54777857	      0.50155527	      0.13985533	      0.72191356	     -0.27872908	     -0.54344317	     -1.24869232	     -0.27840794	     -0.20163440	      1.16655713	      0.40025985	     -1.84687251
      0.99700000	      0.20268858	      0.00563392	     -0.05078734	      1.93000000	      1.09424870	     -0.87552000	      0.66082703	     -0.29584378	     -0.59365280	     -1.31700102	     -0.29596944	     -0.12562915	      0.27406905	      0.14734384	      0.09477592	     -0.53511446	      0.49641702	      0.14143101	      0.72423135	     -0.28517982	     -0.53667129	     -1.23552556	     -0.27080529	     -0.19981227	      1.14792399	      0.40287086	     -1.82313603
      1.00100000	      0.20180544	      0.04140619	     -0.05741924	      1.93384000	      1.09404863	     -0.87477000	      0.67281745	     -0.32574127	     -0.56625462	     -1.32476773	     -0.29711787	     -0.12180583	      0.27085067	      0.14975623	      0.08950572	     -0.53002159	      0.49386884	      0.14180905	      0.71388853	     -0.27001640	     -0.55146819	     -1.21643166	     -0.26013085	     -0.19762712	      1.12919312	      0.40108713	     -1.80250624
      1.00500000	      0.19919443	      0.03319616	     -0.05405983	      1.93720000	      1.09398883	     -0.87417000	      0.67118382	     -0.31761502	     -0.57533033	     -1.32131896	     -0.29974285	     -0.12635486	      0.26803021	      0.14953283	      0.08463974	     -0.53532739	      0.50068260	      0.14300704	      0.70640456	     -0.25946065	     -0.55997144	     -1.19530619	     -0.25199064	     -0.20727530	      1.10545664	      0.41146137	     -1.78616996
      1.00900000	      0.19871970	      0.00478220	     -0.05354600	      1.94176000	      1.09195482	     -0.87357800	      0.66139601	     -0.29558198	     -0.59193191	     -1.32534020	     -0.29452082	     -0.12659083	      0.27411792	      0.14526166	      0.08278132	     -0.53144578	      0.50432685	      0.14373310	      0.71976680	     -0.28340656	     -0.53179484	     -1.18401042	     -0.25112495	     -0.20526468	      1.08421948	      0.41030247	     -1.76494675
      1.01300000	      0.19874762	     -0.01110728	     -0.05080584	      1.94590000	      1.09069950	     -0.87283000	      0.65592266	     -0.28271192	     -0.60721401	     -1.32795820	     -0.29966605	     -0.12721635	      0.27740961	      0.14509027	      0.07966311	     -0.52754322	      0.50777213	      0.14339520	      0.71313804	     -0.27494172	     -0.53873078	     -1.16509105	     -0.23894954	     -0.20489816	      1.06412375	      0.40474534	     -1.74906426
      1.01700000	      0.19774929	     -0.00034208	     -0.05119121	      1.94990000	      1.08989950	     -0.87203000	      0.66122846	     -0.29081025	     -0.60110536	     -1.33238435	     -0.30210951	     -0.13173187	      0.27436576	      0.14281226	      0.08004848	     -0.52232818	      0.51018767	      0.14616260	      0.70665240	     -0.26347141	     -0.54698270	     -1.14903402	     -0.22946193	     -0.20971527	      1.04297735	      0.40786599	     -1.72574666
      1.02100000	      0.19595859	      0.03375118	     -0.05488642	      1.95368000	      1.08914042	     -0.87176800	      0.67707954	     -0.31893100	     -0.57373510	     -1.34172884	     -0.29991389	     -0.13769810	      0.26811399	      0.13826708	      0.08292897	     -0.51561215	      0.51158044	      0.15081285	      0.70982192	     -0.26893429	     -0.53632223	     -1.13869120	     -0.22534993	     -0.21646621	      1.01976796	      0.41724539	     -1.69647749
      1.02500000	      0.19537216	      0.07038913	     -0.05690821	      1.95680000	      1.08720678	     -0.87312000	      0.69654345	     -0.35337681	     -0.54543284	     -1.35900062	     -0.30227357	     -0.13673607	      0.26844909	      0.13733996	      0.08152433	     -0.50830969	      0.51279519	      0.15073187	      0.72153657	     -0.30180233	     -0.50008919	     -1.12928039	     -0.21799162	     -0.21511183	      0.99466314	      0.41496948	     -1.67699961
      1.02900000	      0.19533027	      0.00084125	     -0.05071857	      1.96248000	      1.08720608	     -0.87096800	      0.66546263	     -0.29413336	     -0.60034788	     -1.34392098	     -0.30364191	     -0.13256404	      0.26363198	      0.13371945	      0.07522299	     -0.49825659	      0.51604848	      0.14867936	      0.69901484	     -0.27009319	     -0.53759283	     -1.10444086	     -0.20682152	     -0.20954074	      0.97910877	      0.41321019	     -1.65710286
      1.03300000	      0.19569679	      0.02146755	     -0.05694765	      1.96648000	      1.08483220	     -0.86967400	      0.67385068	     -0.30561762	     -0.57932016	     -1.35120947	     -0.30352323	     -0.13418929	      0.26376812	      0.13390655	      0.07231248	     -0.49775394	      0.51963688	      0.14833065	      0.69736376	     -0.26490956	     -0.54873850	     -1.09262847	     -0.19997634	     -0.21464059	      0.95426575	      0.41618423	     -1.63635787
